<svg width="182" height="27" viewBox="0 0 182 27" fill="none" xmlns="http://www.w3.org/2000/svg"
     class="Sidebar_logo__39Uz7">
  <path
    d="M14.198 1.18c1.519 0 2.743.408 3.672 1.224.93.816 1.394 1.893 1.394 3.23 0 1.088-.306 2.187-.918 3.298-.612 1.088-1.44 2.051-2.482 2.89a9.05 9.05 0 01-3.4 1.768l-.51-.884a5.456 5.456 0 002.346-2.074c.612-.952.918-1.972.918-3.06 0-1.292-.351-2.323-1.054-3.094-.703-.793-1.62-1.19-2.754-1.19-1.201 0-2.335.487-3.4 1.462-1.043.952-1.881 2.244-2.516 3.876-.612 1.61-.918 3.343-.918 5.202 0 1.904.295 3.593.884 5.066.59 1.45 1.405 2.584 2.448 3.4 1.065.816 2.278 1.224 3.638 1.224.975 0 1.95-.238 2.924-.714.997-.499 1.96-1.213 2.89-2.142l.918.85c-1.065 1.383-2.391 2.539-3.978 3.468-1.564.907-3.207 1.36-4.93 1.36-1.859 0-3.49-.43-4.896-1.292-1.383-.861-2.448-2.051-3.196-3.57C.53 19.937.156 18.18.156 16.208c0-2.765.623-5.293 1.87-7.582 1.27-2.312 2.97-4.125 5.1-5.44 2.153-1.337 4.51-2.006 7.072-2.006zm15.09 8.228c-1.496 1.065-2.675 2.278-3.536 3.638-.839 1.337-1.258 2.913-1.258 4.726 0 .997.193 2.006.578 3.026.385 1.02.952 1.87 1.7 2.55.748.657 1.643.986 2.686.986 1.315 0 2.369-.476 3.162-1.428.816-.952 1.224-2.13 1.224-3.536 0-1.065-.283-2.142-.85-3.23a8.1 8.1 0 00-2.21-2.788c-.93-.77-1.927-1.201-2.992-1.292.476-.521.986-.997 1.53-1.428.567-.43 1.27-.952 2.108-1.564 1.632.544 2.924 1.553 3.876 3.026a8.629 8.629 0 011.462 4.862c0 1.564-.351 3.083-1.054 4.556a8.907 8.907 0 01-2.992 3.604c-1.292.907-2.8 1.36-4.522 1.36-1.428 0-2.743-.329-3.944-.986a7.826 7.826 0 01-2.822-2.754 7.43 7.43 0 01-1.054-3.876c0-2.425.76-4.556 2.278-6.392 1.541-1.836 3.536-3.117 5.984-3.842l.646.782zm25.895 13.43c0 .34.08.623.238.85.159.204.385.306.68.306.453 0 1.008-.385 1.666-1.156l.578.612c-.567 1.156-1.27 1.915-2.108 2.278-.839.34-1.474.51-1.904.51-.839 0-1.485-.193-1.938-.578-.43-.385-.748-1.02-.952-1.904-.181-.907-.272-2.176-.272-3.808v-1.02l-.136-2.346h-.136c-.544 2.425-1.36 4.67-2.448 6.732-1.066 2.063-2.47 3.094-4.216 3.094-.77 0-1.349-.181-1.734-.544-.363-.385-.6-.895-.714-1.53-.09-.635-.136-1.507-.136-2.618v-9.452c0-.385-.08-.68-.238-.884a.749.749 0 00-.646-.34c-.544 0-1.122.408-1.734 1.224l-.578-.646c.385-.839.873-1.473 1.462-1.904.59-.43 1.1-.703 1.53-.816.453-.113.748-.17.884-.17 1.224 0 2.096.34 2.618 1.02.521.657.782 1.496.782 2.516v9.078c0 .408.045.725.136.952.113.227.25.34.408.34.816 0 1.575-.816 2.278-2.448.703-1.655 1.27-3.525 1.7-5.61.43-2.108.646-3.638.646-4.59l4.284-1.428v14.28zm12.763-9.248c-.952 1.065-1.78 2.403-2.482 4.012-.68 1.587-1.02 3.037-1.02 4.352 0 1.27.34 2.323 1.02 3.162.68.816 1.643 1.224 2.89 1.224.997 0 1.949-.25 2.856-.748a7.5 7.5 0 002.38-2.006l-.51-.612c-.771.499-1.496.748-2.176.748-1.02 0-1.802-.351-2.346-1.054-.522-.703-.782-1.575-.782-2.618 0-1.7.464-3.389 1.394-5.066.929-1.677 2.051-3.128 3.366-4.352l-.612-.646c-1.519.997-2.97 1.496-4.352 1.496-.884 0-1.689-.34-2.414-1.02a5.389 5.389 0 01-1.428-2.448l-3.264 3.672c.09.317.317.635.68.952.362.317.578.51.646.578l-2.278 4.692 1.394.612 2.21-4.726c.589.227 1.235.34 1.938.34 1.088 0 2.017-.227 2.788-.68l.102.136zM80.87 7.606c1.541 0 2.312.612 2.312 1.836-.023.544-.136 1.02-.34 1.428-.204.408-.431.77-.68 1.088-.227.317-.386.533-.476.646.294.34.827.827 1.598 1.462.702.567 1.269 1.088 1.7 1.564.43.453.793 1.043 1.088 1.768.294.703.442 1.564.442 2.584a6.301 6.301 0 01-.884 3.264 6.211 6.211 0 01-2.346 2.312c-.998.567-2.097.85-3.298.85-.884 0-1.802-.159-2.754-.476-.952-.317-1.666-.76-2.142-1.326l2.482-3.332a9.239 9.239 0 001.7 1.938c.657.567 1.314.85 1.972.85.838 0 1.564-.283 2.176-.85.612-.567.918-1.28.918-2.142 0-.703-.295-1.394-.884-2.074-.59-.68-1.428-1.507-2.516-2.482-.748-.657-1.224-1.1-1.428-1.326l-2.312 3.366-1.224-.816 2.652-3.672c-.454-.816-.68-1.757-.68-2.822 0-1.043.249-1.904.748-2.584.498-.703 1.224-1.054 2.176-1.054zm0 1.394c-.272 0-.454.08-.544.238-.091.159-.136.385-.136.68 0 .25.045.499.136.748.09.25.192.499.306.748.249-.181.464-.453.646-.816.181-.363.272-.68.272-.952a.548.548 0 00-.204-.442A.586.586 0 0080.87 9zm18.471-.306c1.315 0 2.414.34 3.298 1.02.884.657 1.326 1.62 1.326 2.89 0 1.02-.555 2.165-1.666 3.434-1.088 1.247-2.391 2.414-3.91 3.502-1.496 1.065-2.777 1.836-3.842 2.312.952 1.519 2.346 2.278 4.182 2.278 1.02 0 2.04-.283 3.06-.85a8.644 8.644 0 002.652-2.312l.68.816c-1.179 1.473-2.425 2.618-3.74 3.434-1.292.793-2.833 1.19-4.624 1.19-1.45 0-2.754-.329-3.91-.986a7.27 7.27 0 01-2.686-2.686c-.635-1.156-.952-2.448-.952-3.876 0-1.723.465-3.366 1.394-4.93a11.035 11.035 0 013.774-3.808c1.564-.952 3.219-1.428 4.964-1.428zm-1.938 2.21c-.861 0-1.632.317-2.312.952-.68.612-1.213 1.405-1.598 2.38a8.158 8.158 0 00-.578 3.026c0 1.36.295 2.527.884 3.502.839-.476 1.723-1.133 2.652-1.972a14.105 14.105 0 002.38-2.754c.635-.975.952-1.859.952-2.652 0-.793-.215-1.405-.646-1.836-.408-.43-.986-.646-1.734-.646zm15.308-3.298c1.542 0 2.312.612 2.312 1.836-.022.544-.136 1.02-.34 1.428-.204.408-.43.77-.68 1.088-.226.317-.385.533-.476.646.295.34.828.827 1.598 1.462.703.567 1.27 1.088 1.7 1.564.431.453.794 1.043 1.088 1.768.295.703.442 1.564.442 2.584a6.294 6.294 0 01-.884 3.264 6.201 6.201 0 01-2.346 2.312c-.997.567-2.096.85-3.298.85-.884 0-1.802-.159-2.754-.476-.952-.317-1.666-.76-2.142-1.326l2.482-3.332a9.25 9.25 0 001.7 1.938c.658.567 1.315.85 1.972.85.839 0 1.564-.283 2.176-.85.612-.567.918-1.28.918-2.142 0-.703-.294-1.394-.884-2.074-.589-.68-1.428-1.507-2.516-2.482-.748-.657-1.224-1.1-1.428-1.326l-2.312 3.366-1.224-.816 2.652-3.672c-.453-.816-.68-1.757-.68-2.822 0-1.043.25-1.904.748-2.584.499-.703 1.224-1.054 2.176-1.054zm0 1.394c-.272 0-.453.08-.544.238-.09.159-.136.385-.136.68 0 .25.046.499.136.748.091.25.193.499.306.748.25-.181.465-.453.646-.816.182-.363.272-.68.272-.952a.548.548 0 00-.204-.442.585.585 0 00-.476-.204z"
    fill="#321FE1"></path>
  <path
    d="M138.018 1.316c-.794 1.133-1.836 2.074-3.128 2.822-1.292.748-2.596 1.122-3.91 1.122-.431.544-.748 1.065-.952 1.564-.182.499-.272 1.077-.272 1.734V19.54c0 1.632-.363 3.003-1.088 4.114-.703 1.11-1.802 2.13-3.298 3.06l-.714-.816c.589-.748.884-1.847.884-3.298V10.53c0-.952.294-1.87.884-2.754a12.959 12.959 0 012.244-2.516l-4.522-.034a4.39 4.39 0 00-2.108.51c-.635.34-1.236.861-1.802 1.564l-.748-.714c1.065-1.405 2.153-2.516 3.264-3.332 1.133-.816 2.414-1.224 3.842-1.224h5.032c1.088 0 2.187-.09 3.298-.272 1.11-.204 1.949-.555 2.516-1.054l.578.612zm9.926-.034c2.221 0 4.182.6 5.882 1.802 1.7 1.201 3.003 2.777 3.91 4.726a13.84 13.84 0 011.394 6.086c0 2.199-.431 4.261-1.292 6.188a11.08 11.08 0 01-3.842 4.624c-1.678 1.156-3.695 1.734-6.052 1.734-2.222 0-4.194-.6-5.916-1.802-1.723-1.201-3.049-2.765-3.978-4.692a13.754 13.754 0 01-1.394-6.052c0-2.199.442-4.261 1.326-6.188.884-1.927 2.176-3.48 3.876-4.658 1.7-1.179 3.728-1.768 6.086-1.768zm-1.258 1.904c-1.36 0-2.482.43-3.366 1.292-.862.839-1.485 1.904-1.87 3.196a13.822 13.822 0 00-.578 3.978c0 1.972.283 3.944.85 5.916.589 1.95 1.496 3.581 2.72 4.896 1.246 1.315 2.81 1.972 4.692 1.972 1.337 0 2.436-.43 3.298-1.292.884-.884 1.518-1.972 1.904-3.264.385-1.315.578-2.64.578-3.978 0-1.904-.295-3.83-.884-5.78-.567-1.972-1.474-3.615-2.72-4.93-1.224-1.337-2.766-2.006-4.624-2.006zm26.845-1.938c2.266 0 4.091.623 5.474 1.87 1.405 1.224 2.108 2.924 2.108 5.1 0 1.881-.635 3.627-1.904 5.236-1.27 1.587-2.924 2.856-4.964 3.808-2.018.93-4.092 1.394-6.222 1.394-.25 0-.476-.011-.68-.034l.17-.952a12.875 12.875 0 004.454-1.462c1.428-.793 2.584-1.813 3.468-3.06.906-1.27 1.36-2.697 1.36-4.284 0-1.655-.476-2.97-1.428-3.944-.93-.975-2.346-1.462-4.25-1.462-1.587 0-3.219.374-4.896 1.122a17.973 17.973 0 00-4.522 2.924l-.884-.952a21.5 21.5 0 015.814-3.808 16.37 16.37 0 016.902-1.496zm-6.324 23.97l-4.114 1.394V7.402l4.114-1.394v19.21z"
    fill="#404040"></path>
</svg>
